<svg t="1776351047869" class="icon" viewBox="0 0 1024 1024" version="1.1" xmlns="http://www.w3.org/2000/svg" p-id="3473"
     width="128" height="128">
    <path d="M921.6 633.74222222V464.21333333c0-10.01244445-8.192-18.20444445-18.20444445-18.20444444H547.84V323.12888889H709.97333333c10.01244445 0 18.20444445-8.192 18.20444445-18.20444444V129.70666667c0-10.01244445-8.192-18.20444445-18.20444445-18.20444445H314.02666667c-10.01244445 0-18.20444445 8.192-18.20444445 18.20444445v175.21777778c0 10.01244445 8.192 18.20444445 18.20444445 18.20444444h160.99555555v122.88H119.46666667c-10.01244445 0-18.20444445 8.192-18.20444445 18.20444444v170.55288889C44.032 651.37777778 2.27555555 704.28444445 2.27555555 766.86222222c0 76.00355555 61.66755555 137.67111111 137.67111112 137.67111111 76.00355555-0.11377778 137.55733333-61.66755555 137.67111111-137.67111111 0-64.28444445-44.032-118.21511111-103.53777778-133.34755555V518.82666667h300.94222222v115.14311111C416.31288889 649.67111111 373.19111111 703.26044445 373.19111111 766.86222222c0 76.00355555 61.66755555 137.67111111 137.67111111 137.67111111 76.00355555-0.11377778 137.55733333-61.66755555 137.67111111-137.67111111 0-63.26044445-42.66666667-116.50844445-100.69333333-132.66488889V518.82666667H848.78222222v115.59822222c-57.79911111 16.384-100.12444445 69.51822222-100.12444444 132.43733333 0 76.00355555 61.66755555 137.67111111 137.67111111 137.67111111 76.00355555-0.11377778 137.55733333-61.66755555 137.67111111-137.67111111 0-63.82933333-43.46311111-117.53244445-102.4-133.12zM368.64 184.32h286.72v65.99111111H368.64v-65.99111111zM204.8 766.86222222c0 35.84-29.01333333 64.85333333-64.85333333 64.85333333s-64.85333333-29.01333333-64.85333334-64.85333333 29.01333333-64.85333333 64.85333334-64.85333333 64.85333333 29.01333333 64.85333333 64.85333333z m370.91555555 0c0 35.84-29.01333333 64.85333333-64.85333333 64.85333333s-64.85333333-29.01333333-64.85333333-64.85333333 29.01333333-64.85333333 64.85333333-64.85333333 64.85333333 29.01333333 64.85333333 64.85333333z m310.61333334 64.85333333c-35.84 0-64.85333333-29.01333333-64.85333334-64.85333333s29.01333333-64.85333333 64.85333334-64.85333333 64.85333333 29.01333333 64.85333333 64.85333333-29.01333333 64.85333333-64.85333333 64.85333333z"
          fill="#1296db" p-id="3474"></path>
</svg>
