<?xml version="1.0" standalone="no"?><!DOCTYPE svg PUBLIC "-//W3C//DTD SVG 1.1//EN" "http://www.w3.org/Graphics/SVG/1.1/DTD/svg11.dtd"><svg t="1774431876737" class="icon" viewBox="0 0 1024 1024" version="1.1" xmlns="http://www.w3.org/2000/svg" p-id="2024" xmlns:xlink="http://www.w3.org/1999/xlink" width="200" height="200"><path d="M512 880.94c-203.44 0-368.94-165.5-368.94-368.94S308.56 143.06 512 143.06 880.94 308.56 880.94 512 715.44 880.94 512 880.94z m0-685.18c-174.37 0-316.23 141.86-316.23 316.24S337.63 828.24 512 828.24 828.24 686.38 828.24 512 686.37 195.76 512 195.76z" fill="#333333" p-id="2025"></path><path d="M512 643.76c-72.66 0-131.76-59.11-131.76-131.76S439.34 380.24 512 380.24 643.77 439.34 643.77 512 584.65 643.76 512 643.76z m0-210.82c-43.6 0-79.06 35.46-79.06 79.06s35.46 79.06 79.06 79.06 79.06-35.46 79.06-79.06-35.47-79.06-79.06-79.06z" fill="#333333" p-id="2026"></path><path d="M512 960c-14.55 0-26.35-11.8-26.35-26.35V617.41c0-14.55 11.8-26.35 26.35-26.35s26.35 11.8 26.35 26.35v316.24c0 14.55-11.8 26.35-26.35 26.35zM512 432.94c-14.55 0-26.35-11.8-26.35-26.35V90.35C485.64 75.8 497.44 64 512 64c14.55 0 26.35 11.8 26.35 26.35v316.24c0 14.55-11.8 26.35-26.35 26.35zM810.14 836.5c-6.74 0-13.49-2.57-18.63-7.72L567.89 605.17c-10.29-10.29-10.29-26.98 0-37.26 10.28-10.29 26.96-10.29 37.27 0l223.61 223.61c10.29 10.29 10.29 26.98 0 37.26-5.14 5.15-11.88 7.72-18.63 7.72zM437.47 463.83c-6.74 0-13.49-2.57-18.63-7.72L195.22 232.49c-10.29-10.29-10.29-26.98 0-37.26 10.28-10.29 26.98-10.29 37.26 0L456.1 418.84c10.29 10.29 10.29 26.98 0 37.26-5.14 5.16-11.89 7.73-18.63 7.73zM933.65 538.35H617.41c-14.55 0-26.35-11.8-26.35-26.35s11.8-26.35 26.35-26.35h316.23c14.55 0 26.35 11.8 26.35 26.35 0.01 14.55-11.79 26.35-26.34 26.35zM406.59 538.35H90.35C75.8 538.35 64 526.55 64 512s11.8-26.35 26.35-26.35h316.23c14.55 0 26.35 11.8 26.35 26.35 0.01 14.55-11.79 26.35-26.34 26.35zM586.53 463.82c-6.74 0-13.49-2.57-18.63-7.72-10.29-10.29-10.29-26.98 0-37.26l223.61-223.61c10.29-10.29 26.97-10.29 37.26 0s10.29 26.98 0 37.26L605.16 456.1a26.284 26.284 0 0 1-18.63 7.72zM213.85 836.5c-6.74 0-13.49-2.57-18.63-7.72-10.29-10.29-10.29-26.98 0-37.26l223.63-223.63c10.28-10.29 26.97-10.29 37.26 0s10.29 26.98 0 37.26L232.48 828.78c-5.14 5.15-11.89 7.72-18.63 7.72z" fill="#333333" p-id="2027"></path></svg>
